<svg version="1.1" viewBox="0.0 0.0 903.0 371.0" fill="none" stroke="none" stroke-linecap="square" stroke-miterlimit="10" width="903" height="371" xmlns:xlink="http://www.w3.org/1999/xlink" xmlns="http://www.w3.org/2000/svg"><path fill="#ffffff" d="M0 0L903.0 0L903.0 371.0L0 371.0L0 0Z" fill-rule="nonzero"/><path stroke="#333333" stroke-width="1.0" stroke-linecap="butt" d="M78.5 283.5L884.5 283.5" fill-rule="nonzero"/><path stroke="#cccccc" stroke-width="1.0" stroke-linecap="butt" d="M78.5 246.5L884.5 246.5" fill-rule="nonzero"/><path stroke="#cccccc" stroke-width="1.0" stroke-linecap="butt" d="M78.5 209.5L884.5 209.5" fill-rule="nonzero"/><path stroke="#cccccc" stroke-width="1.0" stroke-linecap="butt" d="M78.5 172.5L884.5 172.5" fill-rule="nonzero"/><path stroke="#cccccc" stroke-width="1.0" stroke-linecap="butt" d="M78.5 136.5L884.5 136.5" fill-rule="nonzero"/><path stroke="#cccccc" stroke-width="1.0" stroke-linecap="butt" d="M78.5 99.5L884.5 99.5" fill-rule="nonzero"/><path stroke="#cccccc" stroke-width="1.0" stroke-linecap="butt" d="M78.5 62.5L884.5 62.5" fill-rule="nonzero"/><clipPath id="id_0"><path d="M78.55 62.416668L884.45 62.416668L884.45 283.45L78.55 283.45L78.55 62.416668Z" clip-rule="nonzero"/></clipPath><path stroke="#000000" stroke-width="2.0" stroke-linecap="butt" stroke-opacity="0.0" clip-path="url(#id_0)" d="M118.0 283.0L92.0 283.0L92.0 283.0L118.0 283.0Z" fill-rule="nonzero"/><path fill="#4285f4" clip-path="url(#id_0)" d="M118.0 283.0L92.0 283.0L92.0 283.0L118.0 283.0Z" fill-rule="nonzero"/><path stroke="#000000" stroke-width="2.0" stroke-linecap="butt" stroke-opacity="0.0" clip-path="url(#id_0)" d="M158.0 283.0L132.0 283.0L132.0 283.0L158.0 283.0Z" fill-rule="nonzero"/><path fill="#4285f4" clip-path="url(#id_0)" d="M158.0 283.0L132.0 283.0L132.0 283.0L158.0 283.0Z" fill-rule="nonzero"/><path stroke="#000000" stroke-width="2.0" stroke-linecap="butt" stroke-opacity="0.0" clip-path="url(#id_0)" d="M197.0 283.0L171.0 283.0L171.0 267.0C171.0 265.89542 171.89543 265.0 173.0 265.0L195.0 265.0C196.10457 265.0 197.0 265.89542 197.0 267.0Z" fill-rule="nonzero"/><path fill="#4285f4" clip-path="url(#id_0)" d="M197.0 283.0L171.0 283.0L171.0 267.0C171.0 265.89542 171.89543 265.0 173.0 265.0L195.0 265.0C196.10457 265.0 197.0 265.89542 197.0 267.0Z" fill-rule="nonzero"/><path stroke="#000000" stroke-width="2.0" stroke-linecap="butt" stroke-opacity="0.0" clip-path="url(#id_0)" d="M237.0 283.0L211.0 283.0L211.0 249.0C211.0 247.89543 211.89543 247.0 213.0 247.0L235.0 247.0C236.10457 247.0 237.0 247.89543 237.0 249.0Z" fill-rule="nonzero"/><path fill="#4285f4" clip-path="url(#id_0)" d="M237.0 283.0L211.0 283.0L211.0 249.0C211.0 247.89543 211.89543 247.0 213.0 247.0L235.0 247.0C236.10457 247.0 237.0 247.89543 237.0 249.0Z" fill-rule="nonzero"/><path stroke="#000000" stroke-width="2.0" stroke-linecap="butt" stroke-opacity="0.0" clip-path="url(#id_0)" d="M277.0 283.0L251.0 283.0L251.0 212.0C251.0 210.89543 251.89543 210.0 253.0 210.0L275.0 210.0C276.10458 210.0 277.0 210.89543 277.0 212.0Z" fill-rule="nonzero"/><path fill="#4285f4" clip-path="url(#id_0)" d="M277.0 283.0L251.0 283.0L251.0 212.0C251.0 210.89543 251.89543 210.0 253.0 210.0L275.0 210.0C276.10458 210.0 277.0 210.89543 277.0 212.0Z" fill-rule="nonzero"/><path stroke="#000000" stroke-width="2.0" stroke-linecap="butt" stroke-opacity="0.0" clip-path="url(#id_0)" d="M316.0 283.0L290.0 283.0L290.0 193.0C290.0 191.89543 290.89542 191.0 292.0 191.0L314.0 191.0C315.10458 191.0 316.0 191.89543 316.0 193.0Z" fill-rule="nonzero"/><path fill="#4285f4" clip-path="url(#id_0)" d="M316.0 283.0L290.0 283.0L290.0 193.0C290.0 191.89543 290.89542 191.0 292.0 191.0L314.0 191.0C315.10458 191.0 316.0 191.89543 316.0 193.0Z" fill-rule="nonzero"/><path stroke="#000000" stroke-width="2.0" stroke-linecap="butt" stroke-opacity="0.0" clip-path="url(#id_0)" d="M356.0 283.0L330.0 283.0L330.0 120.0C330.0 118.89543 330.89542 118.0 332.0 118.0L354.0 118.0C355.10458 118.0 356.0 118.89543 356.0 120.0Z" fill-rule="nonzero"/><path fill="#4285f4" clip-path="url(#id_0)" d="M356.0 283.0L330.0 283.0L330.0 120.0C330.0 118.89543 330.89542 118.0 332.0 118.0L354.0 118.0C355.10458 118.0 356.0 118.89543 356.0 120.0Z" fill-rule="nonzero"/><path stroke="#000000" stroke-width="2.0" stroke-linecap="butt" stroke-opacity="0.0" clip-path="url(#id_0)" d="M395.0 283.0L369.0 283.0L369.0 175.0C369.0 173.89543 369.89542 173.0 371.0 173.0L393.0 173.0C394.10458 173.0 395.0 173.89543 395.0 175.0Z" fill-rule="nonzero"/><path fill="#4285f4" clip-path="url(#id_0)" d="M395.0 283.0L369.0 283.0L369.0 175.0C369.0 173.89543 369.89542 173.0 371.0 173.0L393.0 173.0C394.10458 173.0 395.0 173.89543 395.0 175.0Z" fill-rule="nonzero"/><path stroke="#000000" stroke-width="2.0" stroke-linecap="butt" stroke-opacity="0.0" clip-path="url(#id_0)" d="M435.0 283.0L409.0 283.0L409.0 230.0C409.0 228.89543 409.89542 228.0 411.0 228.0L433.0 228.0C434.10458 228.0 435.0 228.89543 435.0 230.0Z" fill-rule="nonzero"/><path fill="#4285f4" clip-path="url(#id_0)" d="M435.0 283.0L409.0 283.0L409.0 230.0C409.0 228.89543 409.89542 228.0 411.0 228.0L433.0 228.0C434.10458 228.0 435.0 228.89543 435.0 230.0Z" fill-rule="nonzero"/><path stroke="#000000" stroke-width="2.0" stroke-linecap="butt" stroke-opacity="0.0" clip-path="url(#id_0)" d="M475.0 283.0L449.0 283.0L449.0 249.0C449.0 247.89543 449.89542 247.0 451.0 247.0L473.0 247.0C474.10458 247.0 475.0 247.89543 475.0 249.0Z" fill-rule="nonzero"/><path fill="#4285f4" clip-path="url(#id_0)" d="M475.0 283.0L449.0 283.0L449.0 249.0C449.0 247.89543 449.89542 247.0 451.0 247.0L473.0 247.0C474.10458 247.0 475.0 247.89543 475.0 249.0Z" fill-rule="nonzero"/><path stroke="#000000" stroke-width="2.0" stroke-linecap="butt" stroke-opacity="0.0" clip-path="url(#id_0)" d="M514.0 283.0L488.0 283.0L488.0 267.0C488.0 265.89542 488.89542 265.0 490.0 265.0L512.0 265.0C513.10455 265.0 514.0 265.89542 514.0 267.0Z" fill-rule="nonzero"/><path fill="#4285f4" clip-path="url(#id_0)" d="M514.0 283.0L488.0 283.0L488.0 267.0C488.0 265.89542 488.89542 265.0 490.0 265.0L512.0 265.0C513.10455 265.0 514.0 265.89542 514.0 267.0Z" fill-rule="nonzero"/><path stroke="#000000" stroke-width="2.0" stroke-linecap="butt" stroke-opacity="0.0" clip-path="url(#id_0)" d="M554.0 283.0L528.0 283.0L528.0 249.0C528.0 247.89543 528.89545 247.0 530.0 247.0L552.0 247.0C553.10455 247.0 554.0 247.89543 554.0 249.0Z" fill-rule="nonzero"/><path fill="#4285f4" clip-path="url(#id_0)" d="M554.0 283.0L528.0 283.0L528.0 249.0C528.0 247.89543 528.89545 247.0 530.0 247.0L552.0 247.0C553.10455 247.0 554.0 247.89543 554.0 249.0Z" fill-rule="nonzero"/><path stroke="#000000" stroke-width="2.0" stroke-linecap="butt" stroke-opacity="0.0" clip-path="url(#id_0)" d="M594.0 283.0L568.0 283.0L568.0 267.0C568.0 265.89542 568.89545 265.0 570.0 265.0L592.0 265.0C593.10455 265.0 594.0 265.89542 594.0 267.0Z" fill-rule="nonzero"/><path fill="#4285f4" clip-path="url(#id_0)" d="M594.0 283.0L568.0 283.0L568.0 267.0C568.0 265.89542 568.89545 265.0 570.0 265.0L592.0 265.0C593.10455 265.0 594.0 265.89542 594.0 267.0Z" fill-rule="nonzero"/><path stroke="#000000" stroke-width="2.0" stroke-linecap="butt" stroke-opacity="0.0" clip-path="url(#id_0)" d="M633.0 283.0L607.0 283.0L607.0 249.0C607.0 247.89543 607.89545 247.0 609.0 247.0L631.0 247.0C632.10455 247.0 633.0 247.89543 633.0 249.0Z" fill-rule="nonzero"/><path fill="#4285f4" clip-path="url(#id_0)" d="M633.0 283.0L607.0 283.0L607.0 249.0C607.0 247.89543 607.89545 247.0 609.0 247.0L631.0 247.0C632.10455 247.0 633.0 247.89543 633.0 249.0Z" fill-rule="nonzero"/><path stroke="#000000" stroke-width="2.0" stroke-linecap="butt" stroke-opacity="0.0" clip-path="url(#id_0)" d="M673.0 283.0L647.0 283.0L647.0 175.0C647.0 173.89543 647.89545 173.0 649.0 173.0L671.0 173.0C672.10455 173.0 673.0 173.89543 673.0 175.0Z" fill-rule="nonzero"/><path fill="#4285f4" clip-path="url(#id_0)" d="M673.0 283.0L647.0 283.0L647.0 175.0C647.0 173.89543 647.89545 173.0 649.0 173.0L671.0 173.0C672.10455 173.0 673.0 173.89543 673.0 175.0Z" fill-rule="nonzero"/><path stroke="#000000" stroke-width="2.0" stroke-linecap="butt" stroke-opacity="0.0" clip-path="url(#id_0)" d="M712.0 283.0L686.0 283.0L686.0 138.0C686.0 136.89543 686.89545 136.0 688.0 136.0L710.0 136.0C711.10455 136.0 712.0 136.89543 712.0 138.0Z" fill-rule="nonzero"/><path fill="#4285f4" clip-path="url(#id_0)" d="M712.0 283.0L686.0 283.0L686.0 138.0C686.0 136.89543 686.89545 136.0 688.0 136.0L710.0 136.0C711.10455 136.0 712.0 136.89543 712.0 138.0Z" fill-rule="nonzero"/><path stroke="#000000" stroke-width="2.0" stroke-linecap="butt" stroke-opacity="0.0" clip-path="url(#id_0)" d="M752.0 283.0L726.0 283.0L726.0 64.0C726.0 62.89543 726.89545 62.0 728.0 62.0L750.0 62.0C751.10455 62.0 752.0 62.89543 752.0 64.0Z" fill-rule="nonzero"/><path fill="#4285f4" clip-path="url(#id_0)" d="M752.0 283.0L726.0 283.0L726.0 64.0C726.0 62.89543 726.89545 62.0 728.0 62.0L750.0 62.0C751.10455 62.0 752.0 62.89543 752.0 64.0Z" fill-rule="nonzero"/><path stroke="#000000" stroke-width="2.0" stroke-linecap="butt" stroke-opacity="0.0" clip-path="url(#id_0)" d="M792.0 283.0L766.0 283.0L766.0 157.0C766.0 155.89543 766.89545 155.0 768.0 155.0L790.0 155.0C791.10455 155.0 792.0 155.89543 792.0 157.0Z" fill-rule="nonzero"/><path fill="#4285f4" clip-path="url(#id_0)" d="M792.0 283.0L766.0 283.0L766.0 157.0C766.0 155.89543 766.89545 155.0 768.0 155.0L790.0 155.0C791.10455 155.0 792.0 155.89543 792.0 157.0Z" fill-rule="nonzero"/><path stroke="#000000" stroke-width="2.0" stroke-linecap="butt" stroke-opacity="0.0" clip-path="url(#id_0)" d="M831.0 283.0L805.0 283.0L805.0 230.0C805.0 228.89543 805.89545 228.0 807.0 228.0L829.0 228.0C830.10455 228.0 831.0 228.89543 831.0 230.0Z" fill-rule="nonzero"/><path fill="#4285f4" clip-path="url(#id_0)" d="M831.0 283.0L805.0 283.0L805.0 230.0C805.0 228.89543 805.89545 228.0 807.0 228.0L829.0 228.0C830.10455 228.0 831.0 228.89543 831.0 230.0Z" fill-rule="nonzero"/><path stroke="#000000" stroke-width="2.0" stroke-linecap="butt" stroke-opacity="0.0" clip-path="url(#id_0)" d="M871.0 283.0L845.0 283.0L845.0 283.0L871.0 283.0Z" fill-rule="nonzero"/><path fill="#4285f4" clip-path="url(#id_0)" d="M871.0 283.0L845.0 283.0L845.0 283.0L871.0 283.0Z" fill-rule="nonzero"/><path fill="#000000" d="M475.54688 349.45L474.42188 349.45L474.42188 345.5125L470.10938 345.5125L470.10938 349.45L468.98438 349.45L468.98438 340.91876L470.10938 340.91876L470.10938 344.59064L474.42188 344.59064L474.42188 340.91876L475.54688 340.91876L475.54688 349.45ZM477.53125 346.21564Q477.53125 345.29376 477.89062 344.54376Q478.26562 343.79376 478.92188 343.40314Q479.57812 342.9969 480.40625 342.9969Q481.70312 342.9969 482.5 343.8875Q483.3125 344.77814 483.3125 346.27814L483.3125 346.35626Q483.3125 347.27814 482.95312 348.0125Q482.59375 348.7469 481.9375 349.16876Q481.28125 349.575 480.42188 349.575Q479.14062 349.575 478.32812 348.6844Q477.53125 347.77814 477.53125 346.29376L477.53125 346.21564ZM478.625 346.35626Q478.625 347.40314 479.10938 348.04376Q479.60938 348.6844 480.42188 348.6844Q481.25 348.6844 481.73438 348.04376Q482.21875 347.3875 482.21875 346.21564Q482.21875 345.1844 481.71875 344.54376Q481.23438 343.8875 480.40625 343.8875Q479.60938 343.8875 479.10938 344.52814Q478.625 345.15314 478.625 346.35626ZM488.73438 348.825Q488.10938 349.575 486.875 349.575Q485.85938 349.575 485.32812 348.98126Q484.79688 348.3875 484.79688 347.23126L484.79688 343.10626L485.875 343.10626L485.875 347.2Q485.875 348.65314 487.04688 348.65314Q488.29688 348.65314 488.70312 347.71564L488.70312 343.10626L489.79688 343.10626L489.79688 349.45L488.76562 349.45L488.73438 348.825ZM494.89062 344.075Q494.64062 344.04376 494.35938 344.04376Q493.28125 344.04376 492.90625 344.95L492.90625 349.45L491.82812 349.45L491.82812 343.10626L492.875 343.10626L492.89062 343.84064Q493.42188 342.9969 494.40625 342.9969Q494.71875 342.9969 494.89062 343.075L494.89062 344.075Z" fill-rule="nonzero"/><path fill="#000000" d="M29.628138 201.55833L29.628138 197.51146L30.550013 197.51146L30.550013 202.69896L22.018763 202.69896L22.018763 201.55833L29.628138 201.55833ZM27.315638 197.15208Q26.393763 197.15208 25.643763 196.79271Q24.893763 196.41771 24.503138 195.76146Q24.096888 195.10521 24.096888 194.27708Q24.096888 192.98021 24.987513 192.18333Q25.878138 191.37083 27.378138 191.37083L27.456263 191.37083Q28.378138 191.37083 29.112513 191.73021Q29.846888 192.08958 30.268763 192.74583Q30.675013 193.40208 30.675013 194.26146Q30.675013 195.54271 29.784388 196.35521Q28.878138 197.15208 27.393763 197.15208L27.315638 197.15208ZM27.456263 196.05833Q28.503138 196.05833 29.143763 195.57396Q29.784388 195.07396 29.784388 194.26146Q29.784388 193.43333 29.143763 192.94896Q28.487513 192.46458 27.315638 192.46458Q26.284388 192.46458 25.643763 192.96458Q24.987513 193.44896 24.987513 194.27708Q24.987513 195.07396 25.628138 195.57396Q26.253138 196.05833 27.456263 196.05833ZM30.550013 185.94896Q30.362513 186.04271 29.878138 186.10521Q30.675013 186.85521 30.675013 187.90208Q30.675013 188.83958 30.143763 189.44896Q29.612513 190.04271 28.784388 190.04271Q27.800013 190.04271 27.253138 189.29271Q26.706263 188.54271 26.706263 187.16771L26.706263 186.12083L26.206263 186.12083Q25.643763 186.12083 25.315638 186.46458Q24.971888 186.79271 24.971888 187.46458Q24.971888 188.04271 25.268763 188.43333Q25.550013 188.82396 25.971888 188.82396L25.971888 189.91771Q25.487513 189.91771 25.050013 189.58958Q24.612513 189.24583 24.362513 188.66771Q24.096888 188.08958 24.096888 187.40208Q24.096888 186.29271 24.643763 185.68333Q25.190638 185.05833 26.143763 185.02708L29.065638 185.02708Q29.940638 185.02708 30.456263 184.80833L30.550013 184.80833L30.550013 185.94896ZM29.721888 187.74583Q29.721888 187.23021 29.456263 186.77708Q29.190638 186.32396 28.768763 186.12083L27.471888 186.12083L27.471888 186.96458Q27.471888 188.96458 28.643763 188.96458Q29.143763 188.96458 29.440638 188.62083Q29.721888 188.27708 29.721888 187.74583ZM27.331263 183.12083Q25.862513 183.12083 24.987513 182.43333Q24.096888 181.74583 24.096888 180.62083Q24.096888 179.51146 24.846888 178.85521L21.550013 178.85521L21.550013 177.77708L30.550013 177.77708L30.550013 178.77708L29.862513 178.82396Q30.675013 179.48021 30.675013 180.63646Q30.675013 181.73021 29.768763 182.43333Q28.862513 183.12083 27.409388 183.12083L27.331263 183.12083ZM27.456263 182.04271Q28.534388 182.04271 29.143763 181.60521Q29.753138 181.15208 29.753138 180.37083Q29.753138 179.33958 28.815638 178.85521L25.909388 178.85521Q25.018763 179.33958 25.018763 180.35521Q25.018763 181.15208 25.628138 181.60521Q26.237513 182.04271 27.456263 182.04271ZM28.862513 172.16771Q28.425013 172.16771 28.190638 172.51146Q27.940638 172.83958 27.768763 173.66771Q27.596888 174.48021 27.346888 174.96458Q27.096888 175.44896 26.768763 175.68333Q26.425013 175.90208 25.956263 175.90208Q25.175013 175.90208 24.643763 175.24583Q24.096888 174.58958 24.096888 173.55833Q24.096888 172.48021 24.659388 171.82396Q25.206263 171.15208 26.065638 171.15208L26.065638 172.23021Q25.628138 172.23021 25.315638 172.62083Q24.987513 172.99583 24.987513 173.55833Q24.987513 174.15208 25.253138 174.49583Q25.503138 174.82396 25.909388 174.82396Q26.300013 174.82396 26.503138 174.51146Q26.706263 174.19896 26.893763 173.38646Q27.065638 172.57396 27.315638 172.07396Q27.565638 171.57396 27.925013 171.33958Q28.284388 171.08958 28.784388 171.08958Q29.643763 171.08958 30.159388 171.77708Q30.675013 172.44896 30.675013 173.52708Q30.675013 174.29271 30.409388 174.88646Q30.128138 175.46458 29.643763 175.79271Q29.159388 176.12083 28.596888 176.12083L28.596888 175.04271Q29.143763 175.01146 29.471888 174.60521Q29.784388 174.19896 29.784388 173.52708Q29.784388 172.91771 29.534388 172.54271Q29.284388 172.16771 28.862513 172.16771Z" fill-rule="nonzero"/><path fill="#000000" d="M71.6125 284.3094Q71.6125 286.21564 70.95625 287.15314Q70.31563 288.075 68.925 288.075Q67.56563 288.075 66.90938 287.16876Q66.25313 286.2625 66.22188 284.45L66.22188 283.0125Q66.22188 281.1219 66.8625 280.21564Q67.51875 279.29376 68.90938 279.29376Q70.28438 279.29376 70.94063 280.1844Q71.59688 281.0594 71.6125 282.90314L71.6125 284.3094ZM70.51875 282.825Q70.51875 281.45 70.12813 280.825Q69.75313 280.1844 68.90938 280.1844Q68.08125 280.1844 67.69063 280.825Q67.31563 281.45 67.31563 282.7469L67.31563 284.48126Q67.31563 285.85626 67.70625 286.52814Q68.1125 287.1844 68.925 287.1844Q69.72188 287.1844 70.1125 286.5594Q70.50313 285.9344 70.51875 284.60626L70.51875 282.825Z" fill-rule="nonzero"/><path fill="#000000" d="M71.84688 251.11111L66.25313 251.11111L66.25313 250.32986L69.20625 247.04861Q69.8625 246.29861 70.1125 245.84549Q70.3625 245.37674 70.3625 244.87674Q70.3625 244.20486 69.95625 243.78299Q69.56563 243.34549 68.87813 243.34549Q68.08125 243.34549 67.62813 243.81424Q67.175 244.26736 67.175 245.09549L66.09688 245.09549Q66.09688 243.90799 66.84688 243.18924Q67.6125 242.45486 68.87813 242.45486Q70.08125 242.45486 70.76875 243.07986Q71.45625 243.70486 71.45625 244.75174Q71.45625 246.00174 69.84688 247.75174L67.56563 250.22049L71.84688 250.22049L71.84688 251.11111Z" fill-rule="nonzero"/><path fill="#000000" d="M70.83125 211.41284L72.01875 211.41284L72.01875 212.28784L70.83125 212.28784L70.83125 214.27222L69.75313 214.27222L69.75313 212.28784L65.8625 212.28784L65.8625 211.64722L69.675 205.74097L70.83125 205.74097L70.83125 211.41284ZM67.09688 211.41284L69.75313 211.41284L69.75313 207.22534L69.6125 207.45972L67.09688 211.41284Z" fill-rule="nonzero"/><path fill="#000000" d="M70.51875 168.90208L70.51875 169.80833L70.31563 169.80833Q69.05 169.83958 68.3 170.57396Q67.55 171.29271 67.425 172.60521Q68.1125 171.83958 69.26875 171.83958Q70.37813 171.83958 71.05 172.62083Q71.72188 173.40208 71.72188 174.65208Q71.72188 175.96458 71.00313 176.76146Q70.28438 177.55833 69.06563 177.55833Q67.84688 177.55833 67.08125 176.62083Q66.33125 175.66771 66.33125 174.18333L66.33125 173.77708Q66.33125 171.41771 67.33125 170.16771Q68.33125 168.91771 70.31563 168.90208L70.51875 168.90208ZM69.09688 172.74583Q68.53438 172.74583 68.06563 173.07396Q67.59688 173.40208 67.40938 173.91771L67.40938 174.30833Q67.40938 175.37083 67.87813 176.01146Q68.3625 176.65208 69.06563 176.65208Q69.8 176.65208 70.22188 176.12083Q70.64375 175.57396 70.64375 174.69896Q70.64375 173.82396 70.22188 173.29271Q69.8 172.74583 69.09688 172.74583Z" fill-rule="nonzero"/><path fill="#000000" d="M71.44063 134.28195Q71.44063 134.92258 71.09688 135.42258Q70.75313 135.92258 70.19063 136.20383Q70.84688 136.48508 71.2375 137.04758Q71.62813 137.59445 71.62813 138.29758Q71.62813 139.39133 70.87813 140.0632Q70.14375 140.71945 68.925 140.71945Q67.69063 140.71945 66.94063 140.0632Q66.20625 139.39133 66.20625 138.29758Q66.20625 137.59445 66.58125 137.04758Q66.95625 136.48508 67.62813 136.20383Q67.06563 135.92258 66.7375 135.42258Q66.40938 134.92258 66.40938 134.28195Q66.40938 133.20383 67.09688 132.57883Q67.78438 131.9382 68.925 131.9382Q70.05 131.9382 70.7375 132.57883Q71.44063 133.20383 71.44063 134.28195ZM70.55 138.26633Q70.55 137.54758 70.09688 137.11008Q69.64375 136.65695 68.90938 136.65695Q68.175 136.65695 67.72188 137.11008Q67.28438 137.54758 67.28438 138.28195Q67.28438 139.0007 67.72188 139.42258Q68.15938 139.82883 68.925 139.82883Q69.675 139.82883 70.1125 139.40695Q70.55 138.98508 70.55 138.26633ZM68.925 132.82883Q68.28438 132.82883 67.87813 133.23508Q67.4875 133.6257 67.4875 134.3132Q67.4875 134.95383 67.87813 135.36008Q68.26875 135.76633 68.90938 135.76633Q69.56563 135.76633 69.95625 135.36008Q70.34688 134.95383 70.34688 134.3132Q70.34688 133.65695 69.94063 133.2507Q69.53438 132.82883 68.925 132.82883Z" fill-rule="nonzero"/><path fill="#000000" d="M62.815624 103.755554L61.7375 103.755554L61.7375 96.536804L59.55 97.33368L59.55 96.349304L62.659374 95.17743L62.815624 95.17743L62.815624 103.755554ZM71.6125 100.11493Q71.6125 102.02118 70.95625 102.95868Q70.31563 103.880554 68.925 103.880554Q67.56563 103.880554 66.90938 102.974304Q66.25313 102.068054 66.22188 100.255554L66.22188 98.818054Q66.22188 96.92743 66.8625 96.02118Q67.51875 95.099304 68.90938 95.099304Q70.28438 95.099304 70.94063 95.98993Q71.59688 96.86493 71.6125 98.70868L71.6125 100.11493ZM70.51875 98.630554Q70.51875 97.255554 70.12813 96.630554Q69.75313 95.98993 68.90938 95.98993Q68.08125 95.98993 67.69063 96.630554Q67.31563 97.255554 67.31563 98.55243L67.31563 100.286804Q67.31563 101.661804 67.70625 102.33368Q68.1125 102.98993 68.925 102.98993Q69.72188 102.98993 70.1125 102.36493Q70.50313 101.73993 70.51875 100.411804L70.51875 98.630554Z" fill-rule="nonzero"/><path fill="#000000" d="M62.815624 66.916664L61.7375 66.916664L61.7375 59.697914L59.55 60.49479L59.55 59.510414L62.659374 58.33854L62.815624 58.33854L62.815624 66.916664ZM71.84688 66.916664L66.25313 66.916664L66.25313 66.135414L69.20625 62.854164Q69.8625 62.104164 70.1125 61.65104Q70.3625 61.18229 70.3625 60.68229Q70.3625 60.010414 69.95625 59.58854Q69.56563 59.15104 68.87813 59.15104Q68.08125 59.15104 67.62813 59.61979Q67.175 60.072914 67.175 60.90104L66.09688 60.90104Q66.09688 59.71354 66.84688 58.99479Q67.6125 58.260414 68.87813 58.260414Q70.08125 58.260414 70.76875 58.885414Q71.45625 59.510414 71.45625 60.55729Q71.45625 61.80729 69.84688 63.55729L67.56563 66.02604L71.84688 66.02604L71.84688 66.916664Z" fill-rule="nonzero"/><path fill="#000000" d="M92.48445 297.16876L92.92195 292.91876L97.29695 292.91876L97.29695 293.91876L93.84383 293.91876L93.5782 296.2469Q94.21883 295.8719 95.0157 295.8719Q96.17195 295.8719 96.85945 296.65314Q97.54695 297.41876 97.54695 298.73126Q97.54695 300.04376 96.8282 300.8094Q96.12508 301.575 94.84383 301.575Q93.71883 301.575 93.00008 300.95Q92.28133 300.3094 92.18758 299.2L93.2032 299.2Q93.31258 299.9344 93.73445 300.3094Q94.15633 300.6844 94.84383 300.6844Q95.59383 300.6844 96.03133 300.16876Q96.46883 299.65314 96.46883 298.7469Q96.46883 297.8875 96.00008 297.3719Q95.53133 296.85626 94.75008 296.85626Q94.04695 296.85626 93.6407 297.15314L93.35945 297.3875L92.48445 297.16876ZM106.98445 299.21564L103.40633 299.21564L102.60945 301.45L101.4532 301.45L104.7032 292.91876L105.68758 292.91876L108.9532 301.45L107.79695 301.45L106.98445 299.21564ZM103.75008 298.29376L106.65633 298.29376L105.2032 294.3094L103.75008 298.29376ZM111.71883 292.91876L114.5157 299.8719L117.29695 292.91876L118.7657 292.91876L118.7657 301.45L117.6407 301.45L117.6407 298.1219L117.75008 294.54376L114.93758 301.45L114.0782 301.45L111.28133 294.5594L111.3907 298.1219L111.3907 301.45L110.2657 301.45L110.2657 292.91876L111.71883 292.91876Z" fill-rule="nonzero"/><path fill="#000000" d="M135.85204 292.91876L135.85204 293.825L135.64891 293.825Q134.38329 293.85626 133.63329 294.59064Q132.88329 295.3094 132.75829 296.6219Q133.44579 295.85626 134.60204 295.85626Q135.71141 295.85626 136.38329 296.6375Q137.05516 297.41876 137.05516 298.66876Q137.05516 299.98126 136.33641 300.77814Q135.61766 301.575 134.39891 301.575Q133.18016 301.575 132.41454 300.6375Q131.66454 299.6844 131.66454 298.2L131.66454 297.79376Q131.66454 295.4344 132.66454 294.1844Q133.66454 292.9344 135.64891 292.91876L135.85204 292.91876ZM134.43016 296.7625Q133.86766 296.7625 133.39891 297.09064Q132.93016 297.41876 132.74266 297.9344L132.74266 298.325Q132.74266 299.3875 133.21141 300.02814Q133.69579 300.66876 134.39891 300.66876Q135.13329 300.66876 135.55516 300.1375Q135.97704 299.59064 135.97704 298.71564Q135.97704 297.84064 135.55516 297.3094Q135.13329 296.7625 134.43016 296.7625ZM146.58641 299.21564L143.00829 299.21564L142.21141 301.45L141.05516 301.45L144.30516 292.91876L145.28954 292.91876L148.55516 301.45L147.39891 301.45L146.58641 299.21564ZM143.35204 298.29376L146.25829 298.29376L144.80516 294.3094L143.35204 298.29376ZM151.32079 292.91876L154.11766 299.8719L156.89891 292.91876L158.36766 292.91876L158.36766 301.45L157.24266 301.45L157.24266 298.1219L157.35204 294.54376L154.53954 301.45L153.68016 301.45L150.88329 294.5594L150.99266 298.1219L150.99266 301.45L149.86766 301.45L149.86766 292.91876L151.32079 292.91876Z" fill-rule="nonzero"/><path fill="#000000" d="M176.70401 293.52814L173.17276 301.45L172.03214 301.45L175.54776 293.8094L170.93839 293.8094L170.93839 292.91876L176.70401 292.91876L176.70401 293.52814ZM186.18839 299.21564L182.61026 299.21564L181.81339 301.45L180.65714 301.45L183.90714 292.91876L184.89151 292.91876L188.15714 301.45L187.00089 301.45L186.18839 299.21564ZM182.95401 298.29376L185.86026 298.29376L184.40714 294.3094L182.95401 298.29376ZM190.92276 292.91876L193.71964 299.8719L196.50089 292.91876L197.96964 292.91876L197.96964 301.45L196.84464 301.45L196.84464 298.1219L196.95401 294.54376L194.14151 301.45L193.28214 301.45L190.48526 294.5594L190.59464 298.1219L190.59464 301.45L189.46964 301.45L189.46964 292.91876L190.92276 292.91876Z" fill-rule="nonzero"/><path fill="#000000" d="M215.97784 295.1375Q215.97784 295.77814 215.6341 296.27814Q215.29034 296.77814 214.72784 297.0594Q215.3841 297.34064 215.77472 297.90314Q216.16534 298.45 216.16534 299.15314Q216.16534 300.2469 215.41534 300.91876Q214.68097 301.575 213.46222 301.575Q212.22784 301.575 211.47784 300.91876Q210.74347 300.2469 210.74347 299.15314Q210.74347 298.45 211.11847 297.90314Q211.49347 297.34064 212.16534 297.0594Q211.60284 296.77814 211.27472 296.27814Q210.9466 295.77814 210.9466 295.1375Q210.9466 294.0594 211.6341 293.4344Q212.3216 292.79376 213.46222 292.79376Q214.58722 292.79376 215.27472 293.4344Q215.97784 294.0594 215.97784 295.1375ZM215.08722 299.1219Q215.08722 298.40314 214.6341 297.96564Q214.18097 297.5125 213.4466 297.5125Q212.71222 297.5125 212.2591 297.96564Q211.8216 298.40314 211.8216 299.1375Q211.8216 299.85626 212.2591 300.27814Q212.6966 300.6844 213.46222 300.6844Q214.21222 300.6844 214.64972 300.2625Q215.08722 299.84064 215.08722 299.1219ZM213.46222 293.6844Q212.8216 293.6844 212.41534 294.09064Q212.02472 294.48126 212.02472 295.16876Q212.02472 295.8094 212.41534 296.21564Q212.80597 296.6219 213.4466 296.6219Q214.10284 296.6219 214.49347 296.21564Q214.8841 295.8094 214.8841 295.16876Q214.8841 294.5125 214.47784 294.10626Q214.0716 293.6844 213.46222 293.6844ZM225.79034 299.21564L222.21222 299.21564L221.41534 301.45L220.2591 301.45L223.5091 292.91876L224.49347 292.91876L227.7591 301.45L226.60284 301.45L225.79034 299.21564ZM222.55597 298.29376L225.46222 298.29376L224.0091 294.3094L222.55597 298.29376ZM230.52472 292.91876L233.3216 299.8719L236.10284 292.91876L237.5716 292.91876L237.5716 301.45L236.4466 301.45L236.4466 298.1219L236.55597 294.54376L233.74347 301.45L232.8841 301.45L230.08722 294.5594L230.1966 298.1219L230.1966 301.45L229.0716 301.45L229.0716 292.91876L230.52472 292.91876Z" fill-rule="nonzero"/><path fill="#000000" d="M254.54857 297.7Q254.22044 298.10626 253.73607 298.35626Q253.26732 298.59064 252.70482 298.59064Q251.97044 298.59064 251.42357 298.23126Q250.8767 297.8719 250.57982 297.21564Q250.28294 296.54376 250.28294 295.7469Q250.28294 294.90314 250.59544 294.21564Q250.92357 293.52814 251.51732 293.16876Q252.1267 292.79376 252.92357 292.79376Q254.1892 292.79376 254.90794 293.7469Q255.64232 294.7 255.64232 296.325L255.64232 296.6375Q255.64232 299.1375 254.65794 300.27814Q253.67357 301.41876 251.6892 301.45L251.47044 301.45L251.47044 300.54376L251.70482 300.54376Q253.04857 300.5125 253.76732 299.84064Q254.48607 299.16876 254.54857 297.7ZM252.8767 297.7Q253.42357 297.7 253.8767 297.3719Q254.34544 297.02814 254.5642 296.54376L254.5642 296.10626Q254.5642 295.04376 254.09544 294.3719Q253.6267 293.7 252.92357 293.7Q252.20482 293.7 251.76732 294.2469Q251.34544 294.79376 251.34544 295.7Q251.34544 296.575 251.7517 297.1375Q252.17357 297.7 252.8767 297.7ZM265.39233 299.21564L261.8142 299.21564L261.01733 301.45L259.86108 301.45L263.11108 292.91876L264.09546 292.91876L267.36108 301.45L266.20483 301.45L265.39233 299.21564ZM262.15796 298.29376L265.0642 298.29376L263.61108 294.3094L262.15796 298.29376ZM270.1267 292.91876L272.92358 299.8719L275.70483 292.91876L277.17358 292.91876L277.17358 301.45L276.04858 301.45L276.04858 298.1219L276.15796 294.54376L273.34546 301.45L272.48608 301.45L269.6892 294.5594L269.79858 298.1219L269.79858 301.45L268.67358 301.45L268.67358 292.91876L270.1267 292.91876Z" fill-rule="nonzero"/><path fill="#000000" d="M300.5568 301.45L299.47867 301.45L299.47867 294.23126L297.29117 295.02814L297.29117 294.04376L300.40054 292.8719L300.5568 292.8719L300.5568 301.45ZM309.35367 297.8094Q309.35367 299.71564 308.69742 300.65314Q308.0568 301.575 306.66617 301.575Q305.3068 301.575 304.65054 300.66876Q303.9943 299.7625 303.96304 297.95L303.96304 296.5125Q303.96304 294.6219 304.60367 293.71564Q305.25992 292.79376 306.65054 292.79376Q308.02554 292.79376 308.6818 293.6844Q309.33804 294.5594 309.35367 296.40314L309.35367 297.8094ZM308.25992 296.325Q308.25992 294.95 307.8693 294.325Q307.4943 293.6844 306.65054 293.6844Q305.82242 293.6844 305.4318 294.325Q305.0568 294.95 305.0568 296.2469L305.0568 297.98126Q305.0568 299.35626 305.44742 300.02814Q305.85367 300.6844 306.66617 300.6844Q307.46304 300.6844 307.85367 300.0594Q308.2443 299.4344 308.25992 298.10626L308.25992 296.325Z" fill-rule="nonzero"/><path fill="#000000" d="M299.9943 314.21564L296.41617 314.21564L295.6193 316.45L294.46304 316.45L297.71304 307.91876L298.69742 307.91876L301.96304 316.45L300.8068 316.45L299.9943 314.21564ZM296.75992 313.29376L299.66617 313.29376L298.21304 309.3094L296.75992 313.29376ZM304.72867 307.91876L307.52554 314.8719L310.3068 307.91876L311.77554 307.91876L311.77554 316.45L310.65054 316.45L310.65054 313.1219L310.75992 309.54376L307.94742 316.45L307.08804 316.45L304.29117 309.5594L304.40054 313.1219L304.40054 316.45L303.27554 316.45L303.27554 307.91876L304.72867 307.91876Z" fill-rule="nonzero"/><path fill="#000000" d="M340.15875 301.45L339.08063 301.45L339.08063 294.23126L336.89313 295.02814L336.89313 294.04376L340.0025 292.8719L340.15875 292.8719L340.15875 301.45ZM347.15875 301.45L346.08063 301.45L346.08063 294.23126L343.89313 295.02814L343.89313 294.04376L347.0025 292.8719L347.15875 292.8719L347.15875 301.45Z" fill-rule="nonzero"/><path fill="#000000" d="M339.59625 314.21564L336.01813 314.21564L335.22125 316.45L334.065 316.45L337.315 307.91876L338.29938 307.91876L341.565 316.45L340.40875 316.45L339.59625 314.21564ZM336.36188 313.29376L339.26813 313.29376L337.815 309.3094L336.36188 313.29376ZM344.33063 307.91876L347.1275 314.8719L349.90875 307.91876L351.3775 307.91876L351.3775 316.45L350.2525 316.45L350.2525 313.1219L350.36188 309.54376L347.54938 316.45L346.69 316.45L343.89313 309.5594L344.0025 313.1219L344.0025 316.45L342.8775 316.45L342.8775 307.91876L344.33063 307.91876Z" fill-rule="nonzero"/><path fill="#000000" d="M379.7607 301.45L378.6826 301.45L378.6826 294.23126L376.4951 295.02814L376.4951 294.04376L379.60446 292.8719L379.7607 292.8719L379.7607 301.45ZM388.79196 301.45L383.1982 301.45L383.1982 300.66876L386.15134 297.3875Q386.8076 296.6375 387.0576 296.1844Q387.3076 295.71564 387.3076 295.21564Q387.3076 294.54376 386.90134 294.1219Q386.5107 293.6844 385.8232 293.6844Q385.02634 293.6844 384.5732 294.15314Q384.1201 294.60626 384.1201 295.4344L383.04196 295.4344Q383.04196 294.2469 383.79196 293.52814Q384.5576 292.79376 385.8232 292.79376Q387.02634 292.79376 387.71384 293.41876Q388.40134 294.04376 388.40134 295.09064Q388.40134 296.34064 386.79196 298.09064L384.5107 300.5594L388.79196 300.5594L388.79196 301.45Z" fill-rule="nonzero"/><path fill="#000000" d="M375.60446 313.10626L375.60446 316.45L374.47946 316.45L374.47946 307.91876L377.6357 307.91876Q379.02634 307.91876 379.8232 308.6375Q380.6201 309.34064 380.6201 310.52814Q380.6201 311.7625 379.83884 312.4344Q379.0732 313.10626 377.6201 313.10626L375.60446 313.10626ZM375.60446 312.1844L377.6357 312.1844Q378.54196 312.1844 379.0107 311.7625Q379.4951 311.34064 379.4951 310.54376Q379.4951 309.77814 379.0107 309.325Q378.54196 308.85626 377.6982 308.84064L375.60446 308.84064L375.60446 312.1844ZM383.9326 307.91876L386.72946 314.8719L389.5107 307.91876L390.97946 307.91876L390.97946 316.45L389.85446 316.45L389.85446 313.1219L389.96384 309.54376L387.15134 316.45L386.29196 316.45L383.4951 309.5594L383.60446 313.1219L383.60446 316.45L382.47946 316.45L382.47946 307.91876L383.9326 307.91876Z" fill-rule="nonzero"/><path fill="#000000" d="M412.36267 301.45L411.28455 301.45L411.28455 294.23126L409.09705 295.02814L409.09705 294.04376L412.20642 292.8719L412.36267 292.8719L412.36267 301.45ZM420.20642 298.10626L420.20642 301.45L419.08142 301.45L419.08142 292.91876L422.23767 292.91876Q423.6283 292.91876 424.42517 293.6375Q425.22205 294.34064 425.22205 295.52814Q425.22205 296.7625 424.4408 297.4344Q423.67517 298.10626 422.22205 298.10626L420.20642 298.10626ZM420.20642 297.1844L422.23767 297.1844Q423.14392 297.1844 423.61267 296.7625Q424.09705 296.34064 424.09705 295.54376Q424.09705 294.77814 423.61267 294.325Q423.14392 293.85626 422.30017 293.84064L420.20642 293.84064L420.20642 297.1844ZM428.53455 292.91876L431.33142 299.8719L434.11267 292.91876L435.58142 292.91876L435.58142 301.45L434.45642 301.45L434.45642 298.1219L434.5658 294.54376L431.7533 301.45L430.89392 301.45L428.09705 294.5594L428.20642 298.1219L428.20642 301.45L427.08142 301.45L427.08142 292.91876L428.53455 292.91876Z" fill-rule="nonzero"/><path fill="#000000" d="M453.99588 301.45L448.40213 301.45L448.40213 300.66876L451.35526 297.3875Q452.0115 296.6375 452.2615 296.1844Q452.5115 295.71564 452.5115 295.21564Q452.5115 294.54376 452.10526 294.1219Q451.71463 293.6844 451.02713 293.6844Q450.23026 293.6844 449.77713 294.15314Q449.324 294.60626 449.324 295.4344L448.24588 295.4344Q448.24588 294.2469 448.99588 293.52814Q449.7615 292.79376 451.02713 292.79376Q452.23026 292.79376 452.91776 293.41876Q453.60526 294.04376 453.60526 295.09064Q453.60526 296.34064 451.99588 298.09064L449.71463 300.5594L453.99588 300.5594L453.99588 301.45ZM459.80838 298.10626L459.80838 301.45L458.68338 301.45L458.68338 292.91876L461.83963 292.91876Q463.23026 292.91876 464.02713 293.6375Q464.824 294.34064 464.824 295.52814Q464.824 296.7625 464.04276 297.4344Q463.27713 298.10626 461.824 298.10626L459.80838 298.10626ZM459.80838 297.1844L461.83963 297.1844Q462.74588 297.1844 463.21463 296.7625Q463.699 296.34064 463.699 295.54376Q463.699 294.77814 463.21463 294.325Q462.74588 293.85626 461.90213 293.84064L459.80838 293.84064L459.80838 297.1844ZM468.1365 292.91876L470.93338 299.8719L473.71463 292.91876L475.18338 292.91876L475.18338 301.45L474.05838 301.45L474.05838 298.1219L474.16776 294.54376L471.35526 301.45L470.49588 301.45L467.699 294.5594L467.80838 298.1219L467.80838 301.45L466.68338 301.45L466.68338 292.91876L468.1365 292.91876Z" fill-rule="nonzero"/><path fill="#000000" d="M489.58224 296.65314L490.39474 296.65314Q491.176 296.6375 491.6135 296.2469Q492.051 295.85626 492.051 295.1844Q492.051 293.6844 490.551 293.6844Q489.84787 293.6844 489.426 294.09064Q489.01974 294.4969 489.01974 295.15314L487.926 295.15314Q487.926 294.1375 488.66037 293.46564Q489.41037 292.79376 490.551 292.79376Q491.75412 292.79376 492.44162 293.4344Q493.12912 294.075 493.12912 295.21564Q493.12912 295.77814 492.76974 296.29376Q492.41037 296.8094 491.78537 297.075Q492.4885 297.29376 492.8635 297.8094Q493.25412 298.325 493.25412 299.075Q493.25412 300.21564 492.50412 300.90314Q491.75412 301.575 490.551 301.575Q489.3635 301.575 488.59787 300.91876Q487.84787 300.2625 487.84787 299.2L488.94162 299.2Q488.94162 299.8719 489.37912 300.27814Q489.81662 300.6844 490.56662 300.6844Q491.34787 300.6844 491.75412 300.27814Q492.176 299.85626 492.176 299.09064Q492.176 298.35626 491.72287 297.96564Q491.26974 297.5594 490.39474 297.54376L489.58224 297.54376L489.58224 296.65314ZM499.41037 298.10626L499.41037 301.45L498.28537 301.45L498.28537 292.91876L501.44162 292.91876Q502.83224 292.91876 503.62912 293.6375Q504.426 294.34064 504.426 295.52814Q504.426 296.7625 503.64474 297.4344Q502.87912 298.10626 501.426 298.10626L499.41037 298.10626ZM499.41037 297.1844L501.44162 297.1844Q502.34787 297.1844 502.81662 296.7625Q503.301 296.34064 503.301 295.54376Q503.301 294.77814 502.81662 294.325Q502.34787 293.85626 501.50412 293.84064L499.41037 293.84064L499.41037 297.1844ZM507.7385 292.91876L510.53537 299.8719L513.31665 292.91876L514.7854 292.91876L514.7854 301.45L513.6604 301.45L513.6604 298.1219L513.7698 294.54376L510.95724 301.45L510.09787 301.45L507.301 294.5594L507.41037 298.1219L507.41037 301.45L506.28537 301.45L506.28537 292.91876L507.7385 292.91876Z" fill-rule="nonzero"/><path fill="#000000" d="M532.1842 298.59064L533.3717 298.59064L533.3717 299.46564L532.1842 299.46564L532.1842 301.45L531.1061 301.45L531.1061 299.46564L527.21545 299.46564L527.21545 298.825L531.02795 292.91876L532.1842 292.91876L532.1842 298.59064ZM528.4498 298.59064L531.1061 298.59064L531.1061 294.40314L530.96545 294.6375L528.4498 298.59064ZM539.0123 298.10626L539.0123 301.45L537.8873 301.45L537.8873 292.91876L541.0436 292.91876Q542.4342 292.91876 543.2311 293.6375Q544.02795 294.34064 544.02795 295.52814Q544.02795 296.7625 543.2467 297.4344Q542.4811 298.10626 541.02795 298.10626L539.0123 298.10626ZM539.0123 297.1844L541.0436 297.1844Q541.9498 297.1844 542.4186 296.7625Q542.90295 296.34064 542.90295 295.54376Q542.90295 294.77814 542.4186 294.325Q541.9498 293.85626 541.1061 293.84064L539.0123 293.84064L539.0123 297.1844ZM547.34045 292.91876L550.1373 299.8719L552.9186 292.91876L554.3873 292.91876L554.3873 301.45L553.2623 301.45L553.2623 298.1219L553.3717 294.54376L550.5592 301.45L549.6998 301.45L546.90295 294.5594L547.0123 298.1219L547.0123 301.45L545.8873 301.45L545.8873 292.91876L547.34045 292.91876Z" fill-rule="nonzero"/><path fill="#000000" d="M567.70807 297.16876L568.14557 292.91876L572.52057 292.91876L572.52057 293.91876L569.06744 293.91876L568.8018 296.2469Q569.44244 295.8719 570.2393 295.8719Q571.39557 295.8719 572.08307 296.65314Q572.77057 297.41876 572.77057 298.73126Q572.77057 300.04376 572.0518 300.8094Q571.3487 301.575 570.06744 301.575Q568.94244 301.575 568.2237 300.95Q567.50494 300.3094 567.4112 299.2L568.4268 299.2Q568.5362 299.9344 568.95807 300.3094Q569.37994 300.6844 570.06744 300.6844Q570.81744 300.6844 571.25494 300.16876Q571.69244 299.65314 571.69244 298.7469Q571.69244 297.8875 571.2237 297.3719Q570.75494 296.85626 569.9737 296.85626Q569.27057 296.85626 568.8643 297.15314L568.58307 297.3875L567.70807 297.16876ZM578.6143 298.10626L578.6143 301.45L577.4893 301.45L577.4893 292.91876L580.64557 292.91876Q582.0362 292.91876 582.83307 293.6375Q583.62994 294.34064 583.62994 295.52814Q583.62994 296.7625 582.8487 297.4344Q582.08307 298.10626 580.62994 298.10626L578.6143 298.10626ZM578.6143 297.1844L580.64557 297.1844Q581.5518 297.1844 582.02057 296.7625Q582.50494 296.34064 582.50494 295.54376Q582.50494 294.77814 582.02057 294.325Q581.5518 293.85626 580.70807 293.84064L578.6143 293.84064L578.6143 297.1844ZM586.94244 292.91876L589.7393 299.8719L592.52057 292.91876L593.9893 292.91876L593.9893 301.45L592.8643 301.45L592.8643 298.1219L592.9737 294.54376L590.1612 301.45L589.3018 301.45L586.50494 294.5594L586.6143 298.1219L586.6143 301.45L585.4893 301.45L585.4893 292.91876L586.94244 292.91876Z" fill-rule="nonzero"/><path fill="#000000" d="M611.0756 292.91876L611.0756 293.825L610.8725 293.825Q609.6069 293.85626 608.8569 294.59064Q608.1069 295.3094 607.9819 296.6219Q608.6694 295.85626 609.8256 295.85626Q610.935 295.85626 611.6069 296.6375Q612.27875 297.41876 612.27875 298.66876Q612.27875 299.98126 611.56 300.77814Q610.84125 301.575 609.6225 301.575Q608.40375 301.575 607.6381 300.6375Q606.8881 299.6844 606.8881 298.2L606.8881 297.79376Q606.8881 295.4344 607.8881 294.1844Q608.8881 292.9344 610.8725 292.91876L611.0756 292.91876ZM609.65375 296.7625Q609.09125 296.7625 608.6225 297.09064Q608.15375 297.41876 607.96625 297.9344L607.96625 298.325Q607.96625 299.3875 608.435 300.02814Q608.9194 300.66876 609.6225 300.66876Q610.3569 300.66876 610.77875 300.1375Q611.2006 299.59064 611.2006 298.71564Q611.2006 297.84064 610.77875 297.3094Q610.3569 296.7625 609.65375 296.7625ZM618.21625 298.10626L618.21625 301.45L617.09125 301.45L617.09125 292.91876L620.2475 292.91876Q621.6381 292.91876 622.435 293.6375Q623.2319 294.34064 623.2319 295.52814Q623.2319 296.7625 622.4506 297.4344Q621.685 298.10626 620.2319 298.10626L618.21625 298.10626ZM618.21625 297.1844L620.2475 297.1844Q621.15375 297.1844 621.6225 296.7625Q622.1069 296.34064 622.1069 295.54376Q622.1069 294.77814 621.6225 294.325Q621.15375 293.85626 620.31 293.84064L618.21625 293.84064L618.21625 297.1844ZM626.5444 292.91876L629.34125 299.8719L632.1225 292.91876L633.59125 292.91876L633.59125 301.45L632.46625 301.45L632.46625 298.1219L632.5756 294.54376L629.7631 301.45L628.90375 301.45L626.1069 294.5594L626.21625 298.1219L626.21625 301.45L625.09125 301.45L625.09125 292.91876L626.5444 292.91876Z" fill-rule="nonzero"/><path fill="#000000" d="M651.9276 293.52814L648.39636 301.45L647.25574 301.45L650.77136 293.8094L646.162 293.8094L646.162 292.91876L651.9276 292.91876L651.9276 293.52814ZM657.81824 298.10626L657.81824 301.45L656.69324 301.45L656.69324 292.91876L659.8495 292.91876Q661.2401 292.91876 662.037 293.6375Q662.83386 294.34064 662.83386 295.52814Q662.83386 296.7625 662.0526 297.4344Q661.287 298.10626 659.83386 298.10626L657.81824 298.10626ZM657.81824 297.1844L659.8495 297.1844Q660.75574 297.1844 661.2245 296.7625Q661.70886 296.34064 661.70886 295.54376Q661.70886 294.77814 661.2245 294.325Q660.75574 293.85626 659.912 293.84064L657.81824 293.84064L657.81824 297.1844ZM666.14636 292.91876L668.94324 299.8719L671.7245 292.91876L673.19324 292.91876L673.19324 301.45L672.06824 301.45L672.06824 298.1219L672.1776 294.54376L669.3651 301.45L668.50574 301.45L665.70886 294.5594L665.81824 298.1219L665.81824 301.45L664.69324 301.45L664.69324 292.91876L666.14636 292.91876Z" fill-rule="nonzero"/><path fill="#000000" d="M691.2014 295.1375Q691.2014 295.77814 690.85767 296.27814Q690.5139 296.77814 689.9514 297.0594Q690.60767 297.34064 690.9983 297.90314Q691.3889 298.45 691.3889 299.15314Q691.3889 300.2469 690.6389 300.91876Q689.90454 301.575 688.6858 301.575Q687.4514 301.575 686.7014 300.91876Q685.96704 300.2469 685.96704 299.15314Q685.96704 298.45 686.34204 297.90314Q686.71704 297.34064 687.3889 297.0594Q686.8264 296.77814 686.4983 296.27814Q686.17017 295.77814 686.17017 295.1375Q686.17017 294.0594 686.85767 293.4344Q687.54517 292.79376 688.6858 292.79376Q689.8108 292.79376 690.4983 293.4344Q691.2014 294.0594 691.2014 295.1375ZM690.3108 299.1219Q690.3108 298.40314 689.85767 297.96564Q689.40454 297.5125 688.67017 297.5125Q687.9358 297.5125 687.48267 297.96564Q687.04517 298.40314 687.04517 299.1375Q687.04517 299.85626 687.48267 300.27814Q687.92017 300.6844 688.6858 300.6844Q689.4358 300.6844 689.8733 300.2625Q690.3108 299.84064 690.3108 299.1219ZM688.6858 293.6844Q688.04517 293.6844 687.6389 294.09064Q687.2483 294.48126 687.2483 295.16876Q687.2483 295.8094 687.6389 296.21564Q688.02954 296.6219 688.67017 296.6219Q689.3264 296.6219 689.71704 296.21564Q690.10767 295.8094 690.10767 295.16876Q690.10767 294.5125 689.7014 294.10626Q689.29517 293.6844 688.6858 293.6844ZM697.42017 298.10626L697.42017 301.45L696.29517 301.45L696.29517 292.91876L699.4514 292.91876Q700.84204 292.91876 701.6389 293.6375Q702.4358 294.34064 702.4358 295.52814Q702.4358 296.7625 701.65454 297.4344Q700.8889 298.10626 699.4358 298.10626L697.42017 298.10626ZM697.42017 297.1844L699.4514 297.1844Q700.35767 297.1844 700.8264 296.7625Q701.3108 296.34064 701.3108 295.54376Q701.3108 294.77814 700.8264 294.325Q700.35767 293.85626 699.5139 293.84064L697.42017 293.84064L697.42017 297.1844ZM705.7483 292.91876L708.54517 299.8719L711.3264 292.91876L712.79517 292.91876L712.79517 301.45L711.67017 301.45L711.67017 298.1219L711.77954 294.54376L708.96704 301.45L708.10767 301.45L705.3108 294.5594L705.42017 298.1219L705.42017 301.45L704.29517 301.45L704.29517 292.91876L705.7483 292.91876Z" fill-rule="nonzero"/><path fill="#000000" d="M729.77216 297.7Q729.44403 298.10626 728.95966 298.35626Q728.4909 298.59064 727.9284 298.59064Q727.19403 298.59064 726.64716 298.23126Q726.1003 297.8719 725.8034 297.21564Q725.50653 296.54376 725.50653 295.7469Q725.50653 294.90314 725.81903 294.21564Q726.14716 293.52814 726.7409 293.16876Q727.3503 292.79376 728.14716 292.79376Q729.4128 292.79376 730.13153 293.7469Q730.8659 294.7 730.8659 296.325L730.8659 296.6375Q730.8659 299.1375 729.88153 300.27814Q728.89716 301.41876 726.9128 301.45L726.69403 301.45L726.69403 300.54376L726.9284 300.54376Q728.27216 300.5125 728.9909 299.84064Q729.70966 299.16876 729.77216 297.7ZM728.1003 297.7Q728.64716 297.7 729.1003 297.3719Q729.56903 297.02814 729.7878 296.54376L729.7878 296.10626Q729.7878 295.04376 729.31903 294.3719Q728.8503 293.7 728.14716 293.7Q727.4284 293.7 726.9909 294.2469Q726.56903 294.79376 726.56903 295.7Q726.56903 296.575 726.9753 297.1375Q727.39716 297.7 728.1003 297.7ZM737.02216 298.10626L737.02216 301.45L735.89716 301.45L735.89716 292.91876L739.0534 292.91876Q740.44403 292.91876 741.2409 293.6375Q742.0378 294.34064 742.0378 295.52814Q742.0378 296.7625 741.25653 297.4344Q740.4909 298.10626 739.0378 298.10626L737.02216 298.10626ZM737.02216 297.1844L739.0534 297.1844Q739.95966 297.1844 740.4284 296.7625Q740.9128 296.34064 740.9128 295.54376Q740.9128 294.77814 740.4284 294.325Q739.95966 293.85626 739.1159 293.84064L737.02216 293.84064L737.02216 297.1844ZM745.3503 292.91876L748.14716 299.8719L750.9284 292.91876L752.39716 292.91876L752.39716 301.45L751.27216 301.45L751.27216 298.1219L751.38153 294.54376L748.56903 301.45L747.70966 301.45L744.9128 294.5594L745.02216 298.1219L745.02216 301.45L743.89716 301.45L743.89716 292.91876L745.3503 292.91876Z" fill-rule="nonzero"/><path fill="#000000" d="M775.7804 301.45L774.7023 301.45L774.7023 294.23126L772.5148 295.02814L772.5148 294.04376L775.62415 292.8719L775.7804 292.8719L775.7804 301.45ZM784.5773 297.8094Q784.5773 299.71564 783.921 300.65314Q783.2804 301.575 781.8898 301.575Q780.5304 301.575 779.87415 300.66876Q779.2179 299.7625 779.18665 297.95L779.18665 296.5125Q779.18665 294.6219 779.8273 293.71564Q780.4835 292.79376 781.87415 292.79376Q783.24915 292.79376 783.9054 293.6844Q784.56165 294.5594 784.5773 296.40314L784.5773 297.8094ZM783.4835 296.325Q783.4835 294.95 783.0929 294.325Q782.7179 293.6844 781.87415 293.6844Q781.046 293.6844 780.6554 294.325Q780.2804 294.95 780.2804 296.2469L780.2804 297.98126Q780.2804 299.35626 780.671 300.02814Q781.0773 300.6844 781.8898 300.6844Q782.68665 300.6844 783.0773 300.0594Q783.4679 299.4344 783.4835 298.10626L783.4835 296.325Z" fill-rule="nonzero"/><path fill="#000000" d="M771.62415 313.10626L771.62415 316.45L770.49915 316.45L770.49915 307.91876L773.6554 307.91876Q775.046 307.91876 775.8429 308.6375Q776.6398 309.34064 776.6398 310.52814Q776.6398 311.7625 775.8585 312.4344Q775.0929 313.10626 773.6398 313.10626L771.62415 313.10626ZM771.62415 312.1844L773.6554 312.1844Q774.56165 312.1844 775.0304 311.7625Q775.5148 311.34064 775.5148 310.54376Q775.5148 309.77814 775.0304 309.325Q774.56165 308.85626 773.7179 308.84064L771.62415 308.84064L771.62415 312.1844ZM779.9523 307.91876L782.74915 314.8719L785.5304 307.91876L786.99915 307.91876L786.99915 316.45L785.87415 316.45L785.87415 313.1219L785.9835 309.54376L783.171 316.45L782.31165 316.45L779.5148 309.5594L779.62415 313.1219L779.62415 316.45L778.49915 316.45L778.49915 307.91876L779.9523 307.91876Z" fill-rule="nonzero"/><path fill="#000000" d="M815.3823 301.45L814.3042 301.45L814.3042 294.23126L812.1167 295.02814L812.1167 294.04376L815.2261 292.8719L815.3823 292.8719L815.3823 301.45ZM822.3823 301.45L821.3042 301.45L821.3042 294.23126L819.1167 295.02814L819.1167 294.04376L822.2261 292.8719L822.3823 292.8719L822.3823 301.45Z" fill-rule="nonzero"/><path fill="#000000" d="M811.2261 313.10626L811.2261 316.45L810.1011 316.45L810.1011 307.91876L813.2573 307.91876Q814.64795 307.91876 815.4448 308.6375Q816.2417 309.34064 816.2417 310.52814Q816.2417 311.7625 815.46045 312.4344Q814.6948 313.10626 813.2417 313.10626L811.2261 313.10626ZM811.2261 312.1844L813.2573 312.1844Q814.1636 312.1844 814.6323 311.7625Q815.1167 311.34064 815.1167 310.54376Q815.1167 309.77814 814.6323 309.325Q814.1636 308.85626 813.3198 308.84064L811.2261 308.84064L811.2261 312.1844ZM819.5542 307.91876L822.3511 314.8719L825.1323 307.91876L826.6011 307.91876L826.6011 316.45L825.4761 316.45L825.4761 313.1219L825.58545 309.54376L822.77295 316.45L821.9136 316.45L819.1167 309.5594L819.2261 313.1219L819.2261 316.45L818.1011 316.45L818.1011 307.91876L819.5542 307.91876Z" fill-rule="nonzero"/><path fill="#000000" d="M854.9843 301.45L853.9062 301.45L853.9062 294.23126L851.7187 295.02814L851.7187 294.04376L854.82806 292.8719L854.9843 292.8719L854.9843 301.45ZM864.01556 301.45L858.4218 301.45L858.4218 300.66876L861.37494 297.3875Q862.0312 296.6375 862.2812 296.1844Q862.5312 295.71564 862.5312 295.21564Q862.5312 294.54376 862.12494 294.1219Q861.7343 293.6844 861.0468 293.6844Q860.24994 293.6844 859.7968 294.15314Q859.3437 294.60626 859.3437 295.4344L858.26556 295.4344Q858.26556 294.2469 859.01556 293.52814Q859.7812 292.79376 861.0468 292.79376Q862.24994 292.79376 862.93744 293.41876Q863.62494 294.04376 863.62494 295.09064Q863.62494 296.34064 862.01556 298.09064L859.7343 300.5594L864.01556 300.5594L864.01556 301.45Z" fill-rule="nonzero"/><path fill="#000000" d="M854.4218 314.21564L850.8437 314.21564L850.0468 316.45L848.89056 316.45L852.14056 307.91876L853.12494 307.91876L856.39056 316.45L855.2343 316.45L854.4218 314.21564ZM851.18744 313.29376L854.0937 313.29376L852.64056 309.3094L851.18744 313.29376ZM859.1562 307.91876L861.95306 314.8719L864.7343 307.91876L866.20306 307.91876L866.20306 316.45L865.07806 316.45L865.07806 313.1219L865.18744 309.54376L862.37494 316.45L861.51556 316.45L858.7187 309.5594L858.82806 313.1219L858.82806 316.45L857.70306 316.45L857.70306 307.91876L859.1562 307.91876Z" fill-rule="nonzero"/><path fill="#757575" d="M23.26875 33.065624L23.534374 34.940624L23.940624 33.253124L26.753124 23.33125L28.33125 23.33125L31.08125 33.253124L31.471874 34.971874L31.76875 33.05L33.9875 23.33125L35.8625 23.33125L32.425 37.55L30.70625 37.55L27.784374 27.190624L27.55 26.096874L27.33125 27.190624L24.3 37.55L22.58125 37.55L19.14375 23.33125L21.01875 23.33125L23.26875 33.065624ZM42.3 37.753124Q40.159374 37.753124 38.8 36.346874Q37.45625 34.925 37.45625 32.565624L37.45625 32.221874Q37.45625 30.659374 38.05 29.425Q38.659374 28.190624 39.7375 27.4875Q40.815624 26.784374 42.08125 26.784374Q44.14375 26.784374 45.284374 28.14375Q46.425 29.503124 46.425 32.034374L46.425 32.784374L39.26875 32.784374Q39.3 34.346874 40.175 35.315624Q41.05 36.26875 42.39375 36.26875Q43.3625 36.26875 44.01875 35.878124Q44.690624 35.4875 45.190624 34.846874L46.284374 35.70625Q44.95625 37.753124 42.3 37.753124ZM42.08125 28.26875Q40.9875 28.26875 40.2375 29.065624Q39.503124 29.8625 39.33125 31.3L44.6125 31.3L44.6125 31.159374Q44.534374 29.784374 43.8625 29.034374Q43.20625 28.26875 42.08125 28.26875ZM48.471874 32.175Q48.471874 29.753124 49.628124 28.26875Q50.784374 26.784374 52.64375 26.784374Q54.503124 26.784374 55.58125 28.05L55.58125 22.55L57.39375 22.55L57.39375 37.55L55.7375 37.55L55.64375 36.409374Q54.565624 37.753124 52.628124 37.753124Q50.8 37.753124 49.628124 36.253124Q48.471874 34.7375 48.471874 32.315624L48.471874 32.175ZM50.284374 32.378124Q50.284374 34.175 51.01875 35.190624Q51.76875 36.20625 53.08125 36.20625Q54.8 36.20625 55.58125 34.675L55.58125 29.815624Q54.784374 28.315624 53.096874 28.315624Q51.76875 28.315624 51.01875 29.346874Q50.284374 30.378124 50.284374 32.378124ZM61.628124 26.9875L61.690624 28.315624Q62.89375 26.784374 64.84688 26.784374Q68.20625 26.784374 68.22188 30.565624L68.22188 37.55L66.425 37.55L66.425 30.55Q66.40938 29.409374 65.89375 28.8625Q65.39375 28.315624 64.3 28.315624Q63.425 28.315624 62.753124 28.784374Q62.096874 29.253124 61.721874 30.01875L61.721874 37.55L59.925 37.55L59.925 26.9875L61.628124 26.9875ZM75.3 37.753124Q73.15938 37.753124 71.8 36.346874Q70.45625 34.925 70.45625 32.565624L70.45625 32.221874Q70.45625 30.659374 71.05 29.425Q71.65938 28.190624 72.7375 27.4875Q73.81563 26.784374 75.08125 26.784374Q77.14375 26.784374 78.28438 28.14375Q79.425 29.503124 79.425 32.034374L79.425 32.784374L72.26875 32.784374Q72.3 34.346874 73.175 35.315624Q74.05 36.26875 75.39375 36.26875Q76.3625 36.26875 77.01875 35.878124Q77.69063 35.4875 78.19063 34.846874L79.28438 35.70625Q77.95625 37.753124 75.3 37.753124ZM75.08125 28.26875Q73.9875 28.26875 73.2375 29.065624Q72.50313 29.8625 72.33125 31.3L77.6125 31.3L77.6125 31.159374Q77.53438 29.784374 76.8625 29.034374Q76.20625 28.26875 75.08125 28.26875ZM88.06563 34.753124Q88.06563 34.01875 87.51875 33.6125Q86.97188 33.20625 85.59688 32.909374Q84.22188 32.6125 83.40938 32.20625Q82.6125 31.8 82.22188 31.2375Q81.84688 30.659374 81.84688 29.878124Q81.84688 28.58125 82.94063 27.690624Q84.03438 26.784374 85.75313 26.784374Q87.55 26.784374 88.65938 27.721874Q89.78438 28.64375 89.78438 30.08125L87.95625 30.08125Q87.95625 29.346874 87.33125 28.815624Q86.70625 28.26875 85.75313 28.26875Q84.75313 28.26875 84.19063 28.70625Q83.64375 29.128124 83.64375 29.83125Q83.64375 30.471874 84.15938 30.815624Q84.675 31.14375 86.03438 31.45625Q87.39375 31.753124 88.22188 32.175Q89.06563 32.58125 89.47188 33.175Q89.87813 33.76875 89.87813 34.6125Q89.87813 36.034374 88.7375 36.89375Q87.6125 37.753124 85.8 37.753124Q84.53438 37.753124 83.55 37.3Q82.58125 36.846874 82.01875 36.05Q81.47188 35.2375 81.47188 34.3L83.28438 34.3Q83.33125 35.20625 84.00313 35.7375Q84.69063 36.26875 85.8 36.26875Q86.83125 36.26875 87.44063 35.8625Q88.06563 35.440624 88.06563 34.753124ZM91.47188 32.175Q91.47188 29.753124 92.62813 28.26875Q93.78438 26.784374 95.64375 26.784374Q97.50313 26.784374 98.58125 28.05L98.58125 22.55L100.39375 22.55L100.39375 37.55L98.7375 37.55L98.64375 36.409374Q97.56563 37.753124 95.62813 37.753124Q93.8 37.753124 92.62813 36.253124Q91.47188 34.7375 91.47188 32.315624L91.47188 32.175ZM93.28438 32.378124Q93.28438 34.175 94.01875 35.190624Q94.76875 36.20625 96.08125 36.20625Q97.8 36.20625 98.58125 34.675L98.58125 29.815624Q97.78438 28.315624 96.09688 28.315624Q94.76875 28.315624 94.01875 29.346874Q93.28438 30.378124 93.28438 32.378124ZM109.44063 37.55Q109.28438 37.2375 109.19063 36.440624Q107.925 37.753124 106.175 37.753124Q104.6125 37.753124 103.6125 36.8625Q102.6125 35.971874 102.6125 34.6125Q102.6125 32.971874 103.8625 32.065624Q105.12813 31.14375 107.39375 31.14375L109.15938 31.14375L109.15938 30.315624Q109.15938 29.3625 108.58125 28.8Q108.01875 28.2375 106.925 28.2375Q105.95625 28.2375 105.3 28.7375Q104.64375 29.221874 104.64375 29.909374L102.83125 29.909374Q102.83125 29.128124 103.39375 28.39375Q103.95625 27.64375 104.90938 27.221874Q105.87813 26.784374 107.03438 26.784374Q108.8625 26.784374 109.89375 27.70625Q110.925 28.6125 110.97188 30.221874L110.97188 35.08125Q110.97188 36.534374 111.33125 37.39375L111.33125 37.55L109.44063 37.55ZM106.44063 36.175Q107.3 36.175 108.05 35.7375Q108.81563 35.3 109.15938 34.596874L109.15938 32.425L107.7375 32.425Q104.425 32.425 104.425 34.3625Q104.425 35.221874 104.9875 35.70625Q105.55 36.175 106.44063 36.175ZM117.37813 34.909374L119.83125 26.9875L121.76875 26.9875L117.51875 39.175Q116.53438 41.815624 114.39375 41.815624L114.05 41.784374L113.37813 41.659374L113.37813 40.190624L113.8625 40.2375Q114.78438 40.2375 115.28438 39.8625Q115.8 39.4875 116.12813 38.503124L116.53438 37.425L112.76875 26.9875L114.7375 26.9875L117.37813 34.909374ZM130.08125 36.01875L136.83125 36.01875L136.83125 37.55L128.20625 37.55L128.20625 23.33125L130.08125 23.33125L130.08125 36.01875ZM138.44063 32.175Q138.44063 30.6125 139.05 29.378124Q139.65938 28.128124 140.7375 27.45625Q141.83125 26.784374 143.2375 26.784374Q145.39375 26.784374 146.72188 28.284374Q148.06563 29.76875 148.06563 32.253124L148.06563 32.378124Q148.06563 33.925 147.47188 35.159374Q146.87813 36.378124 145.76875 37.065624Q144.675 37.753124 143.25313 37.753124Q141.1125 37.753124 139.76875 36.253124Q138.44063 34.753124 138.44063 32.3L138.44063 32.175ZM140.25313 32.378124Q140.25313 34.14375 141.06563 35.20625Q141.89375 36.26875 143.25313 36.26875Q144.62813 36.26875 145.44063 35.190624Q146.25313 34.1125 146.25313 32.175Q146.25313 30.425 145.425 29.346874Q144.59688 28.26875 143.2375 28.26875Q141.89375 28.26875 141.06563 29.33125Q140.25313 30.39375 140.25313 32.378124ZM156.44063 37.55Q156.28438 37.2375 156.19063 36.440624Q154.925 37.753124 153.175 37.753124Q151.6125 37.753124 150.6125 36.8625Q149.6125 35.971874 149.6125 34.6125Q149.6125 32.971874 150.8625 32.065624Q152.12813 31.14375 154.39375 31.14375L156.15938 31.14375L156.15938 30.315624Q156.15938 29.3625 155.58125 28.8Q155.01875 28.2375 153.925 28.2375Q152.95625 28.2375 152.3 28.7375Q151.64375 29.221874 151.64375 29.909374L149.83125 29.909374Q149.83125 29.128124 150.39375 28.39375Q150.95625 27.64375 151.90938 27.221874Q152.87813 26.784374 154.03438 26.784374Q155.8625 26.784374 156.89375 27.70625Q157.925 28.6125 157.97188 30.221874L157.97188 35.08125Q157.97188 36.534374 158.33125 37.39375L158.33125 37.55L156.44063 37.55ZM153.44063 36.175Q154.3 36.175 155.05 35.7375Q155.81563 35.3 156.15938 34.596874L156.15938 32.425L154.7375 32.425Q151.425 32.425 151.425 34.3625Q151.425 35.221874 151.9875 35.70625Q152.55 36.175 153.44063 36.175ZM160.47188 32.175Q160.47188 29.753124 161.62813 28.26875Q162.78438 26.784374 164.64375 26.784374Q166.50313 26.784374 167.58125 28.05L167.58125 22.55L169.39375 22.55L169.39375 37.55L167.7375 37.55L167.64375 36.409374Q166.56563 37.753124 164.62813 37.753124Q162.8 37.753124 161.62813 36.253124Q160.47188 34.7375 160.47188 32.315624L160.47188 32.175ZM162.28438 32.378124Q162.28438 34.175 163.01875 35.190624Q163.76875 36.20625 165.08125 36.20625Q166.8 36.20625 167.58125 34.675L167.58125 29.815624Q166.78438 28.315624 165.09688 28.315624Q163.76875 28.315624 163.01875 29.346874Q162.28438 30.378124 162.28438 32.378124ZM178.06563 34.753124Q178.06563 34.01875 177.51875 33.6125Q176.97188 33.20625 175.59688 32.909374Q174.22188 32.6125 173.40938 32.20625Q172.6125 31.8 172.22188 31.2375Q171.84688 30.659374 171.84688 29.878124Q171.84688 28.58125 172.94063 27.690624Q174.03438 26.784374 175.75313 26.784374Q177.55 26.784374 178.65938 27.721874Q179.78438 28.64375 179.78438 30.08125L177.95625 30.08125Q177.95625 29.346874 177.33125 28.815624Q176.70625 28.26875 175.75313 28.26875Q174.75313 28.26875 174.19063 28.70625Q173.64375 29.128124 173.64375 29.83125Q173.64375 30.471874 174.15938 30.815624Q174.675 31.14375 176.03438 31.45625Q177.39375 31.753124 178.22188 32.175Q179.06563 32.58125 179.47188 33.175Q179.87813 33.76875 179.87813 34.6125Q179.87813 36.034374 178.7375 36.89375Q177.6125 37.753124 175.8 37.753124Q174.53438 37.753124 173.55 37.3Q172.58125 36.846874 172.01875 36.05Q171.47188 35.2375 171.47188 34.3L173.28438 34.3Q173.33125 35.20625 174.00313 35.7375Q174.69063 36.26875 175.8 36.26875Q176.83125 36.26875 177.44063 35.8625Q178.06563 35.440624 178.06563 34.753124ZM190.675 32.253124L185.90938 32.253124L185.90938 30.76875L190.675 30.76875L190.675 32.253124ZM198.20625 37.55L198.20625 23.33125L202.84688 23.33125Q205.15938 23.33125 206.33125 24.284374Q207.50313 25.2375 207.50313 27.1125Q207.50313 28.1125 206.925 28.878124Q206.3625 29.64375 205.39375 30.065624Q206.53438 30.39375 207.20625 31.3Q207.87813 32.190624 207.87813 33.440624Q207.87813 35.3625 206.62813 36.45625Q205.39375 37.55 203.12813 37.55L198.20625 37.55ZM200.08125 30.89375L200.08125 36.01875L203.175 36.01875Q204.4875 36.01875 205.2375 35.346874Q205.9875 34.659374 205.9875 33.471874Q205.9875 30.89375 203.20625 30.89375L200.08125 30.89375ZM200.08125 29.39375L202.90938 29.39375Q204.14375 29.39375 204.87813 28.784374Q205.6125 28.159374 205.6125 27.1125Q205.6125 25.940624 204.925 25.409374Q204.25313 24.878124 202.84688 24.878124L200.08125 24.878124L200.08125 29.39375ZM216.44063 36.503124Q215.39375 37.753124 213.34688 37.753124Q211.65938 37.753124 210.76875 36.76875Q209.89375 35.784374 209.87813 33.8625L209.87813 26.9875L211.69063 26.9875L211.69063 33.815624Q211.69063 36.20625 213.64375 36.20625Q215.70625 36.20625 216.39375 34.675L216.39375 26.9875L218.20625 26.9875L218.20625 37.55L216.4875 37.55L216.44063 36.503124ZM222.87813 37.55L221.08125 37.55L221.08125 26.9875L222.87813 26.9875L222.87813 37.55ZM220.925 24.175Q220.925 23.7375 221.19063 23.440624Q221.47188 23.128124 221.9875 23.128124Q222.51875 23.128124 222.78438 23.440624Q223.06563 23.7375 223.06563 24.175Q223.06563 24.6125 222.78438 24.909374Q222.51875 25.20625 221.9875 25.20625Q221.47188 25.20625 221.19063 24.909374Q220.925 24.6125 220.925 24.175ZM227.87813 37.55L226.08125 37.55L226.08125 22.55L227.87813 22.55L227.87813 37.55ZM230.47188 32.175Q230.47188 29.753124 231.62813 28.26875Q232.78438 26.784374 234.64375 26.784374Q236.50313 26.784374 237.58125 28.05L237.58125 22.55L239.39375 22.55L239.39375 37.55L237.7375 37.55L237.64375 36.409374Q236.56563 37.753124 234.62813 37.753124Q232.8 37.753124 231.62813 36.253124Q230.47188 34.7375 230.47188 32.315624L230.47188 32.175ZM232.28438 32.378124Q232.28438 34.175 233.01875 35.190624Q233.76875 36.20625 235.08125 36.20625Q236.8 36.20625 237.58125 34.675L237.58125 29.815624Q236.78438 28.315624 235.09688 28.315624Q233.76875 28.315624 233.01875 29.346874Q232.28438 30.378124 232.28438 32.378124ZM243.87813 37.55L242.08125 37.55L242.08125 26.9875L243.87813 26.9875L243.87813 37.55ZM241.925 24.175Q241.925 23.7375 242.19063 23.440624Q242.47188 23.128124 242.9875 23.128124Q243.51875 23.128124 243.78438 23.440624Q244.06563 23.7375 244.06563 24.175Q244.06563 24.6125 243.78438 24.909374Q243.51875 25.20625 242.9875 25.20625Q242.47188 25.20625 242.19063 24.909374Q241.925 24.6125 241.925 24.175ZM248.62813 26.9875L248.69063 28.315624Q249.89375 26.784374 251.84688 26.784374Q255.20625 26.784374 255.22188 30.565624L255.22188 37.55L253.425 37.55L253.425 30.55Q253.40938 29.409374 252.89375 28.8625Q252.39375 28.315624 251.3 28.315624Q250.425 28.315624 249.75313 28.784374Q249.09688 29.253124 248.72188 30.01875L248.72188 37.55L246.925 37.55L246.925 26.9875L248.62813 26.9875ZM257.4875 32.175Q257.4875 29.70625 258.6281 28.253124Q259.76874 26.784374 261.65936 26.784374Q263.59686 26.784374 264.675 28.159374L264.76874 26.9875L266.40936 26.9875L266.40936 37.3Q266.40936 39.346874 265.1906 40.51875Q263.9875 41.70625 261.925 41.70625Q260.78436 41.70625 259.6906 41.221874Q258.59686 40.7375 258.01874 39.878124L258.95624 38.8Q260.1281 40.2375 261.8 40.2375Q263.1281 40.2375 263.8625 39.4875Q264.59686 38.753124 264.59686 37.409374L264.59686 36.4875Q263.51874 37.753124 261.64374 37.753124Q259.78436 37.753124 258.6281 36.253124Q257.4875 34.753124 257.4875 32.175ZM259.3 32.378124Q259.3 34.175 260.03436 35.190624Q260.76874 36.20625 262.08124 36.20625Q263.8 36.20625 264.59686 34.659374L264.59686 29.83125Q263.76874 28.315624 262.1125 28.315624Q260.78436 28.315624 260.03436 29.346874Q259.3 30.378124 259.3 32.378124ZM281.3625 32.76875L283.33124 32.76875L283.33124 34.253124L281.3625 34.253124L281.3625 37.55L279.55 37.55L279.55 34.253124L273.0656 34.253124L273.0656 33.190624L279.4406 23.33125L281.3625 23.33125L281.3625 32.76875ZM275.1125 32.76875L279.55 32.76875L279.55 25.8L279.33124 26.190624L275.1125 32.76875Z" fill-rule="nonzero"/></svg>