<svg version="1.1" viewBox="0.0 0.0 400.0 400.0" fill="none" stroke="none" stroke-linecap="square" stroke-miterlimit="10" xmlns:xlink="http://www.w3.org/1999/xlink" xmlns="http://www.w3.org/2000/svg"><clipPath id="p.0"><path d="m0 0l400.0 0l0 400.0l-400.0 0l0 -400.0z" clip-rule="nonzero"/></clipPath><g clip-path="url(#p.0)"><path fill="#000000" fill-opacity="0.0" d="m0 0l400.0 0l0 400.0l-400.0 0z" fill-rule="evenodd"/><path fill="#9fc5e8" d="m8.671868 200.00787l0 0c0 -105.67338 85.6652 -191.33858 191.33858 -191.33858l0 0c50.74614 0 99.413864 20.158829 135.2968 56.041775c35.882965 35.882942 56.04178 84.55067 56.04178 135.29681l0 0c0 105.67337 -85.66519 191.3386 -191.33858 191.3386l0 0c-105.673386 0 -191.33858 -85.66522 -191.33858 -191.3386zm24.070396 0l0 0c0 92.37967 74.88852 167.26819 167.26819 167.26819c92.379654 0 167.26817 -74.88852 167.26817 -167.26819l0 0c0 -92.37967 -74.88852 -167.26819 -167.26817 -167.26819l0 0c-92.37967 0 -167.26819 74.88852 -167.26819 167.26819z" fill-rule="evenodd"/><path fill="#0b5394" d="m350.5323 81.8921l0 0c55.097137 70.20194 54.340485 169.16742 -1.8235779 238.51886c-56.164093 69.35144 -152.8175 90.66794 -232.9465 51.375366c-80.129 -39.292603 -122.44999 -128.75748 -101.99874 -215.62129c20.45125 -86.86381 98.242546 -148.05406 187.4865 -147.47597l-0.15811157 24.404629l0 0c-77.861015 -0.50434494 -145.73012 52.880608 -163.57272 128.66418c-17.842607 75.78357 19.080585 153.83633 88.98936 188.11658c69.90877 34.280273 154.23412 15.682556 203.2343 -44.822693c49.000183 -60.50525 49.65985 -146.84682 1.5899353 -208.09358z" fill-rule="evenodd"/></g></svg>